# xmcd
# 
# Track frame offsets:
#     150
#     22301
#     39944
#     62098
# 
# Disc length: 1062
# 
# Revision: 1
# Processed by: cddbd v1.5.2PL0 Copyright (c) Steve Scherf et al.
# Submitted via: BonkEnc v1.0
# 
DISCID=2f042404
DTITLE=堀江由衣 - 恋する天気図
DYEAR=2007
DGENRE=Country
TTITLE0=恋する天気図
TTITLE1=えいえんの丘
TTITLE2=恋する天気図 (instrumental)
TTITLE3=えいえんの丘 (instrumental)
EXTD=
EXTT0=
EXTT1=
EXTT2=
EXTT3=
PLAYORDER=
